<svg width="200" height="64" viewBox="0 0 200 64" fill="none" xmlns="http://www.w3.org/2000/svg">
<g filter="url(#filter0_d_1_153)">
<path fill-rule="evenodd" clip-rule="evenodd" d="M39.9321 30.9705C42.6724 27.4682 47.0607 25.1993 52.0066 25.1993C56.9816 25.1993 61.3921 27.495 64.1292 31.0324C64.0126 31.1462 63.9066 31.2642 63.8105 31.382C63.3091 31.9988 62.9319 32.7934 62.6297 33.6003C62.0212 35.2231 61.557 37.3429 61.1272 39.3278L61.089 39.5063C60.6602 41.4876 60.2616 43.3303 59.7796 44.6982C59.5631 45.3127 59.3578 45.7472 59.1757 46.0254C58.9857 45.7449 58.7702 45.3052 58.542 44.6818C58.0265 43.2747 57.593 41.3607 57.1335 39.317L57.1186 39.2501V39.25C56.6769 37.2871 56.2085 35.2043 55.6244 33.61C55.3309 32.8091 54.9709 32.0225 54.5 31.4113C54.0378 30.8116 53.2685 30.1347 52.1433 30.1347C51.0252 30.1347 50.2523 30.8042 49.7835 31.3972C49.3035 32.0045 48.9292 32.7878 48.621 33.5891C48.0001 35.2026 47.4925 37.3133 47.0201 39.301L46.9714 39.5063C46.5036 41.4753 46.0663 43.3162 45.5699 44.6867C45.3804 45.21 45.2016 45.6083 45.0398 45.8927C44.8816 45.6096 44.7072 45.214 44.5229 44.6951C44.0467 43.3538 43.6296 41.5644 43.1815 39.6426L43.1031 39.3063C42.6389 37.3174 42.1353 35.2029 41.5056 33.5843C41.1927 32.7801 40.8101 31.9928 40.3149 31.3828C40.2027 31.2447 40.0753 31.1045 39.9321 30.9705ZM38.2736 33.6596C38.4041 33.9045 38.5422 34.208 38.6849 34.575C39.23 35.976 39.6917 37.8877 40.1672 39.9249L40.2598 40.3219C40.6927 42.1807 41.143 44.1144 41.6735 45.6083C41.9556 46.4028 42.2963 47.181 42.7345 47.7858C43.1489 48.3578 43.8923 49.0967 45.0354 49.0967C46.1751 49.0967 46.9203 48.3614 47.3375 47.792C47.7794 47.1886 48.1257 46.4112 48.4135 45.6162C48.9653 44.0927 49.4351 42.1138 49.8847 40.2199V40.2198L49.9535 39.9303C50.4379 37.8918 50.9043 35.9763 51.4454 34.5702C51.696 33.9187 51.9307 33.4649 52.1349 33.1833C52.3286 33.4625 52.5497 33.9091 52.7844 34.5493C53.2999 35.9566 53.733 37.8705 54.1927 39.9142L54.2077 39.9811C54.6493 41.9441 55.1177 44.027 55.7018 45.6211C55.9953 46.4223 56.3553 47.2089 56.8262 47.8199C57.2885 48.4198 58.0577 49.0967 59.1827 49.0967C60.3137 49.0967 61.0802 48.4136 61.5369 47.8084C62.0007 47.1943 62.3494 46.405 62.6312 45.6052C63.1726 44.0687 63.6031 42.0752 64.0137 40.1788V40.1787L64.0725 39.9034C64.5145 37.8622 64.9387 35.9558 65.4627 34.559C65.5761 34.2551 65.6879 33.996 65.7945 33.7784C66.5972 35.5265 67.0424 37.4567 67.0424 39.4857C67.0424 47.3757 60.3109 53.7721 52.0066 53.7721C43.7024 53.7721 36.9706 47.3757 36.9706 39.4857C36.9706 37.4106 37.4362 35.4388 38.2736 33.6596ZM52.0066 22.342C42.0416 22.342 33.9634 30.0175 33.9634 39.4857C33.9634 48.9538 42.0416 56.6292 52.0066 56.6292C61.9718 56.6292 70.0496 48.9538 70.0496 39.4857C70.0496 30.0175 61.9718 22.342 52.0066 22.342ZM52.3503 32.9442C52.3503 32.9445 52.3468 32.9472 52.3398 32.9511C52.3468 32.9458 52.3503 32.9438 52.3503 32.9442ZM51.9347 32.9461C51.9277 32.9421 51.9243 32.9393 51.9243 32.9389C51.9243 32.9385 51.9278 32.9406 51.9347 32.9461ZM58.9541 46.2966C58.9541 46.2966 58.9573 46.2935 58.9638 46.2896C58.9573 46.2949 58.9541 46.2971 58.9541 46.2966ZM59.3913 46.2851C59.3983 46.2891 59.402 46.2918 59.402 46.2922C59.402 46.2926 59.3983 46.2904 59.3913 46.2851ZM44.7272 46.3223C44.7271 46.3218 44.7315 46.3178 44.7402 46.3121C44.7315 46.3196 44.7272 46.3227 44.7272 46.3223ZM45.3362 46.3148C45.3448 46.3205 45.3491 46.3245 45.3491 46.3249C45.3491 46.3254 45.3447 46.3227 45.3362 46.3148Z" fill="#81818B"/>
<path d="M80.0126 49.6351L75.6372 35.4144H79.4697L82.0648 45.6498L85.082 35.4144H89.367L92.3847 45.6498L95.0097 35.4144H98.8422L94.4364 49.6351H90.4233L87.2245 38.9982L84.0262 49.6351H80.0126Z" fill="#81818B"/>
<path d="M104.466 49.9793C103.178 49.9793 102.122 49.7877 101.297 49.4055C100.473 49.0042 99.8592 48.4786 99.4565 47.8287C99.0543 47.1788 98.8533 46.4621 98.8533 45.6785C98.8533 44.3597 99.3961 43.2893 100.482 42.4674C101.569 41.6455 103.199 41.2346 105.371 41.2346H109.173V40.8905C109.173 39.9157 108.881 39.199 108.298 38.7402C107.715 38.2815 106.99 38.0522 106.126 38.0522C105.341 38.0522 104.657 38.2337 104.073 38.5969C103.49 38.9409 103.128 39.457 102.987 40.1451H99.215C99.3158 39.113 99.6781 38.2146 100.301 37.45C100.945 36.6855 101.77 36.1025 102.776 35.7012C103.782 35.2807 104.908 35.0704 106.156 35.0704C108.288 35.0704 109.968 35.5769 111.195 36.5899C112.422 37.603 113.036 39.0366 113.036 40.8905V49.6351H109.746L109.384 47.3416C108.942 48.1061 108.318 48.7366 107.514 49.2338C106.729 49.7306 105.713 49.9793 104.466 49.9793ZM105.341 47.112C106.447 47.112 107.302 46.7678 107.905 46.0798C108.529 45.3919 108.922 44.5411 109.083 43.5282H105.793C104.767 43.5282 104.033 43.7098 103.59 44.0729C103.148 44.4168 102.927 44.8472 102.927 45.3631C102.927 45.9175 103.148 46.3475 103.59 46.6532C104.033 46.9589 104.616 47.112 105.341 47.112Z" fill="#81818B"/>
<path d="M119.116 49.6351L113.624 35.4144H117.667L121.469 46.1661L125.271 35.4144H129.315L123.793 49.6351H119.116Z" fill="#81818B"/>
<path d="M137.079 49.9793C135.571 49.9793 134.233 49.6732 133.066 49.0617C131.899 48.4498 130.984 47.5898 130.32 46.4811C129.656 45.3728 129.325 44.092 129.325 42.6394C129.325 41.1677 129.647 39.8584 130.29 38.7116C130.954 37.5648 131.859 36.676 133.006 36.0452C134.172 35.3954 135.54 35.0704 137.109 35.0704C138.578 35.0704 139.876 35.3762 141.002 35.9879C142.128 36.5995 143.004 37.4405 143.627 38.5109C144.271 39.5621 144.593 40.7376 144.593 42.0373C144.593 42.2476 144.583 42.4674 144.563 42.6967C144.563 42.9262 144.552 43.165 144.532 43.4135H133.157C133.237 44.5221 133.64 45.3919 134.364 46.0228C135.108 46.6532 136.003 46.9687 137.05 46.9687C137.833 46.9687 138.488 46.8063 139.01 46.4811C139.553 46.1373 139.956 45.6976 140.217 45.1622H144.14C143.859 46.0608 143.386 46.8828 142.722 47.6283C142.078 48.3543 141.274 48.9277 140.308 49.3484C139.363 49.7687 138.286 49.9793 137.079 49.9793ZM137.109 38.0522C136.164 38.0522 135.329 38.3102 134.605 38.8262C133.881 39.3232 133.418 40.0878 133.217 41.1199H140.67C140.61 40.1833 140.248 39.4379 139.584 38.8836C138.92 38.3293 138.095 38.0522 137.109 38.0522Z" fill="#81818B"/>
<path d="M146.635 49.635V28.9922H150.497V49.635H146.635Z" fill="#81818B"/>
<path d="M160.508 49.9793C159 49.9793 157.662 49.6732 156.495 49.0617C155.328 48.4498 154.413 47.5898 153.749 46.4811C153.085 45.3728 152.754 44.092 152.754 42.6394C152.754 41.1677 153.076 39.8584 153.719 38.7116C154.383 37.5648 155.288 36.676 156.435 36.0452C157.602 35.3954 158.969 35.0704 160.539 35.0704C162.007 35.0704 163.305 35.3762 164.431 35.9879C165.558 36.5995 166.433 37.4405 167.056 38.5109C167.7 39.5621 168.022 40.7376 168.022 42.0373C168.022 42.2476 168.012 42.4674 167.992 42.6967C167.992 42.9262 167.982 43.165 167.962 43.4135H156.586C156.666 44.5221 157.069 45.3919 157.793 46.0228C158.537 46.6532 159.432 46.9687 160.479 46.9687C161.263 46.9687 161.917 46.8063 162.44 46.4811C162.983 46.1373 163.385 45.6976 163.647 45.1622H167.57C167.288 46.0608 166.815 46.8828 166.151 47.6283C165.507 48.3543 164.703 48.9277 163.737 49.3484C162.792 49.7687 161.716 49.9793 160.508 49.9793ZM160.539 38.0522C159.594 38.0522 158.758 38.3102 158.034 38.8262C157.31 39.3232 156.847 40.0878 156.646 41.1199H164.099C164.039 40.1833 163.677 39.4379 163.013 38.8836C162.349 38.3293 161.525 38.0522 160.539 38.0522Z" fill="#81818B"/>
<path d="M176.25 49.9793C174.922 49.9793 173.755 49.7784 172.75 49.3772C171.743 48.9564 170.938 48.3831 170.335 47.6566C169.732 46.9306 169.37 46.0896 169.249 45.134H173.141C173.262 45.6878 173.584 46.1661 174.107 46.5674C174.65 46.9496 175.344 47.1408 176.189 47.1408C177.034 47.1408 177.648 46.9784 178.03 46.6532C178.432 46.3285 178.633 45.9555 178.633 45.5352C178.633 44.9234 178.352 44.5124 177.789 44.3022C177.225 44.0729 176.44 43.8532 175.434 43.6429C174.791 43.5091 174.138 43.3466 173.474 43.1555C172.809 42.9644 172.196 42.7254 171.633 42.4388C171.09 42.1329 170.647 41.7506 170.305 41.2919C169.963 40.814 169.792 40.2311 169.792 39.543C169.792 38.2815 170.315 37.2207 171.362 36.3606C172.427 35.5005 173.916 35.0704 175.827 35.0704C177.597 35.0704 179.006 35.4622 180.051 36.2459C181.118 37.0296 181.751 38.1095 181.953 39.4857H178.301C178.08 38.4344 177.245 37.9088 175.797 37.9088C175.073 37.9088 174.509 38.0426 174.107 38.3102C173.725 38.5778 173.534 38.9122 173.534 39.3136C173.534 39.7342 173.825 40.0686 174.409 40.3171C174.992 40.5656 175.767 40.7949 176.732 41.0052C177.778 41.2346 178.734 41.4926 179.599 41.7793C180.484 42.0469 181.188 42.4579 181.711 43.0122C182.234 43.5473 182.496 44.3212 182.496 45.3343C182.516 46.2139 182.274 47.0067 181.772 47.7141C181.269 48.4211 180.545 48.9754 179.599 49.3772C178.654 49.7784 177.537 49.9793 176.25 49.9793Z" fill="#81818B"/>
<path d="M190.896 49.9793C189.568 49.9793 188.401 49.7784 187.396 49.3772C186.39 48.9564 185.585 48.3831 184.982 47.6566C184.378 46.9306 184.016 46.0896 183.896 45.134H187.788C187.909 45.6878 188.231 46.1661 188.754 46.5674C189.297 46.9496 189.991 47.1408 190.836 47.1408C191.681 47.1408 192.294 46.9784 192.677 46.6532C193.079 46.3285 193.28 45.9555 193.28 45.5352C193.28 44.9234 192.998 44.5124 192.435 44.3022C191.872 44.0729 191.087 43.8532 190.081 43.6429C189.438 43.5091 188.784 43.3466 188.12 43.1555C187.456 42.9644 186.843 42.7254 186.279 42.4388C185.737 42.1329 185.293 41.7506 184.952 41.2919C184.609 40.814 184.439 40.2311 184.439 39.543C184.439 38.2815 184.962 37.2207 186.008 36.3606C187.074 35.5005 188.563 35.0704 190.474 35.0704C192.244 35.0704 193.652 35.4622 194.698 36.2459C195.764 37.0296 196.398 38.1095 196.599 39.4857H192.948C192.727 38.4344 191.892 37.9088 190.444 37.9088C189.719 37.9088 189.156 38.0426 188.754 38.3102C188.371 38.5778 188.18 38.9122 188.18 39.3136C188.18 39.7342 188.472 40.0686 189.056 40.3171C189.639 40.5656 190.413 40.7949 191.379 41.0052C192.425 41.2346 193.381 41.4926 194.246 41.7793C195.131 42.0469 195.835 42.4579 196.358 43.0122C196.881 43.5473 197.143 44.3212 197.143 45.3343C197.163 46.2139 196.921 47.0067 196.418 47.7141C195.915 48.4211 195.191 48.9754 194.246 49.3772C193.3 49.7784 192.184 49.9793 190.896 49.9793Z" fill="#81818B"/>
</g>
<defs>
<filter id="filter0_d_1_153" x="-3.48328" y="0" width="237.141" height="86.75" filterUnits="userSpaceOnUse" color-interpolation-filters="sRGB">
<feFlood flood-opacity="0" result="BackgroundImageFix"/>
<feColorMatrix in="SourceAlpha" type="matrix" values="0 0 0 0 0 0 0 0 0 0 0 0 0 0 0 0 0 0 127 0" result="hardAlpha"/>
<feOffset dy="4"/>
<feGaussianBlur stdDeviation="2"/>
<feComposite in2="hardAlpha" operator="out"/>
<feColorMatrix type="matrix" values="0 0 0 0 0 0 0 0 0 0 0 0 0 0 0 0 0 0 0.25 0"/>
<feBlend mode="normal" in2="BackgroundImageFix" result="effect1_dropShadow_1_153"/>
<feBlend mode="normal" in="SourceGraphic" in2="effect1_dropShadow_1_153" result="shape"/>
</filter>
</defs>
</svg>
