<svg width="76" height="76" viewBox="0 0 76 76" fill="none" xmlns="http://www.w3.org/2000/svg">
<path opacity="0.06" d="M54.898 0.265625H21.1221C9.57444 0.265625 0.213196 9.62687 0.213196 21.1745V54.9505C0.213196 66.4981 9.57444 75.8594 21.1221 75.8594H54.898C66.4457 75.8594 75.8069 66.4981 75.8069 54.9505V21.1745C75.8069 9.62687 66.4457 0.265625 54.898 0.265625Z" fill="#0089FF"/>
<path d="M38.0102 63.8029C52.2262 63.8029 63.7506 52.2786 63.7506 38.0625C63.7506 23.8465 52.2262 12.3221 38.0102 12.3221C23.7941 12.3221 12.2698 23.8465 12.2698 38.0625C12.2698 52.2786 23.7941 63.8029 38.0102 63.8029Z" fill="#1B76FF"/>
<path fill-rule="evenodd" clip-rule="evenodd" d="M24.6002 32.9688H29.246V51.1299H24.6002C23.9007 51.1299 23.3336 50.5898 23.3336 49.9236V34.175C23.3336 33.5088 23.9007 32.9688 24.6002 32.9688Z" stroke="white" stroke-width="1.60838" stroke-linecap="round" stroke-linejoin="round"/>
<path fill-rule="evenodd" clip-rule="evenodd" d="M51.2741 47.7297C50.98 49.9931 49.4677 51.1299 46.7792 51.1299H32.7116C30.8003 51.1299 29.246 49.667 29.246 47.8681V32.9905C33.7073 32.5556 35.9378 30.9982 35.9378 26.8104V24.8035C35.9378 22.6883 37.7383 20.9735 39.9594 20.9735C40.8058 20.9735 41.6305 21.2278 42.3164 21.7003C43.2615 22.3526 43.8638 23.5882 43.8638 25.3673V31.1765C43.8638 31.6707 44.7003 32.0759 45.5368 32.0759H50.0243C51.9147 32.0759 53.4479 33.4992 53.4899 35.2685C53.518 36.448 52.7793 40.0991 51.2741 47.7297Z" stroke="white" stroke-width="1.60838" stroke-linecap="round" stroke-linejoin="round"/>
</svg>
