<svg width="76" height="76" viewBox="0 0 76 76" fill="none" xmlns="http://www.w3.org/2000/svg">
<path opacity="0.06" d="M55.4732 0H21.5157C9.906 0 0.494446 9.41155 0.494446 21.0213V54.9787C0.494446 66.5885 9.906 76 21.5157 76H55.4732C67.0829 76 76.4944 66.5885 76.4944 54.9787V21.0213C76.4944 9.41155 67.0829 0 55.4732 0Z" fill="#F6CA4F"/>
<path d="M38.4945 63.8788C52.787 63.8788 64.3732 52.2925 64.3732 38.0001C64.3732 23.7076 52.787 12.1213 38.4945 12.1213C24.2021 12.1213 12.6158 23.7076 12.6158 38.0001C12.6158 52.2925 24.2021 63.8788 38.4945 63.8788Z" fill="#FF6D35"/>
<path d="M48.045 49.6729H28.9439C26.6093 49.6729 24.6992 47.7628 24.6992 45.4282V30.5718C24.6992 28.2373 26.6093 26.3271 28.9439 26.3271H48.045C50.3795 26.3271 52.2896 28.2373 52.2896 30.5718V45.4282C52.2896 47.7628 50.3795 49.6729 48.045 49.6729Z" stroke="white" stroke-width="2" stroke-miterlimit="10" stroke-linecap="round" stroke-linejoin="round"/>
<path d="M24.6992 31.6329L38.4944 40.1223L52.2896 31.6329" stroke="white" stroke-width="2" stroke-miterlimit="10" stroke-linecap="round" stroke-linejoin="round"/>
</svg>
