<svg width="77" height="76" viewBox="0 0 77 76" fill="none" xmlns="http://www.w3.org/2000/svg">
<path opacity="0.06" d="M55.2775 0.265625H21.5016C9.95389 0.265625 0.592651 9.62687 0.592651 21.1745V54.9505C0.592651 66.4981 9.95389 75.8594 21.5016 75.8594H55.2775C66.8252 75.8594 76.1864 66.4981 76.1864 54.9505V21.1745C76.1864 9.62687 66.8252 0.265625 55.2775 0.265625Z" fill="#FF6F35"/>
<path d="M38.3896 63.8029C52.6056 63.8029 64.13 52.2786 64.13 38.0625C64.13 23.8465 52.6056 12.3221 38.3896 12.3221C24.1735 12.3221 12.6492 23.8465 12.6492 38.0625C12.6492 52.2786 24.1735 63.8029 38.3896 63.8029Z" fill="#FFCD1D"/>
<path d="M38.3895 21.8447V54.2804" stroke="white" stroke-width="2.41257" stroke-linecap="round" stroke-linejoin="round"/>
<path d="M45.7613 27.7421H34.7037C33.3351 27.7421 32.0226 28.2857 31.0548 29.2535C30.0871 30.2211 29.5435 31.5337 29.5435 32.9022C29.5435 34.2708 30.0871 35.5833 31.0548 36.5511C32.0226 37.5188 33.3351 38.0625 34.7037 38.0625H42.0754C43.4439 38.0625 44.7565 38.6061 45.7242 39.5739C46.692 40.5415 47.2356 41.8541 47.2356 43.2227C47.2356 44.5913 46.692 45.9038 45.7242 46.8715C44.7565 47.8392 43.4439 48.3829 42.0754 48.3829H29.5435" stroke="white" stroke-width="2.41257" stroke-linecap="round" stroke-linejoin="round"/>
</svg>
