<svg width="77" height="77" viewBox="0 0 77 77" fill="none" xmlns="http://www.w3.org/2000/svg">
<path opacity="0.06" d="M55.2775 0.859375H21.5016C9.95389 0.859375 0.592651 10.2206 0.592651 21.7683V55.5442C0.592651 67.0919 9.95389 76.4531 21.5016 76.4531H55.2775C66.8252 76.4531 76.1864 67.0919 76.1864 55.5442V21.7683C76.1864 10.2206 66.8252 0.859375 55.2775 0.859375Z" fill="#5CC97B"/>
<path d="M38.3896 64.3967C52.6056 64.3967 64.13 52.8723 64.13 38.6563C64.13 24.4402 52.6056 12.9159 38.3896 12.9159C24.1735 12.9159 12.6492 24.4402 12.6492 38.6563C12.6492 52.8723 24.1735 64.3967 38.3896 64.3967Z" fill="#5CC97B"/>
<path fill-rule="evenodd" clip-rule="evenodd" d="M41.1466 45.0292C39.3035 46.2479 37.0738 46.9189 34.698 46.8208C28.6889 46.5726 24.0185 41.4995 24.2667 35.4901C24.5148 29.4807 29.5876 24.8111 35.5968 25.0593C41.605 25.3073 46.2764 30.3794 46.0282 36.3889C45.9407 38.5072 45.2536 40.4592 44.1374 42.088L51.474 49.2115C52.3792 50.1929 52.3468 51.7099 51.4167 52.6499L51.3739 52.6893L51.3287 52.7284C50.3178 53.5779 48.8032 53.4868 47.8989 52.5046L41.1466 45.0292ZM34.8018 44.309C30.1795 44.1181 26.5867 40.2157 26.7777 35.5935C26.9686 30.9713 30.8709 27.3785 35.4931 27.5694C40.1154 27.7603 43.7082 31.6626 43.5173 36.2848C43.3264 40.9071 39.424 44.4999 34.8018 44.309Z" fill="white"/>
</svg>
